<?xml version="1.0" encoding="UTF-8" standalone="no"?>
<svg width="26px" height="6px" viewBox="0 0 26 6" version="1.1" xmlns="http://www.w3.org/2000/svg" xmlns:xlink="http://www.w3.org/1999/xlink">
    <!-- Generator: Sketch 3.7.2 (28276) - http://www.bohemiancoding.com/sketch -->
    <title>W Logo Copy 7</title>
    <desc>Created with Sketch.</desc>
    <defs></defs>
    <g id="Page-1" stroke="none" stroke-width="1" fill="none" fill-rule="evenodd">
        <path d="M19.5,5.72687225 C17.4669604,5.72687225 16.4361233,4.43832599 15.5770925,3.40748899 C14.7180617,2.34801762 14.1453744,1.71806167 13,1.71806167 C11.8546256,1.71806167 11.253304,2.34801762 10.4229075,3.40748899 C9.59251101,4.43832599 8.53303965,5.72687225 6.5,5.72687225 C4.46696035,5.72687225 3.43612335,4.43832599 2.57709251,3.40748899 C1.71806167,2.34801762 1.14537445,1.71806167 0,1.71806167 L0,0 C2.03303965,0 3.06387665,1.28854626 3.92290749,2.31938326 C4.78193833,3.37885463 5.35462555,4.00881057 6.5,4.00881057 C7.64537445,4.00881057 8.24669604,3.37885463 9.07709251,2.31938326 C9.90748899,1.28854626 10.9669604,0 13,0 C15.0330396,0 16.0638767,1.28854626 16.9229075,2.31938326 C17.7819383,3.37885463 18.3546256,4.00881057 19.5,4.00881057 C20.6453744,4.00881057 21.246696,3.37885463 22.0770925,2.31938326 C22.907489,1.28854626 23.9669604,0 26,0 L26,1.71806167 C24.8546256,1.71806167 24.253304,2.34801762 23.4229075,3.40748899 C22.592511,4.43832599 21.5330396,5.72687225 19.5,5.72687225 L19.5,5.72687225 Z" id="W-Logo-Copy-7" fill="#000000"></path>
    </g>
</svg>